<svg width="128.48129272460938px" height="233.13749389648436px" xmlns="http://www.w3.org/2000/svg" viewBox="185.7593536376953 -41.56874694824218 128.48129272460938 233.13749389648436" style="background: none;" preserveAspectRatio="xMidYMid"><defs><filter id="editing-vr"><feFlood flood-color="#d8ebf9" flood-opacity="0.7" result="c1"></feFlood><feFlood flood-color="#71c2cc" flood-opacity="0.7" result="c3"></feFlood><feComposite operator="in" in="c1" in2="SourceAlpha" result="text-c1"></feComposite><feComposite operator="in" in="c3" in2="SourceAlpha" result="text-c3"></feComposite><feOffset in="text-c1" dx="6" dy="6" result="text1"></feOffset><feOffset in="text-c3" dx="-6" dy="-6" result="text3"></feOffset><feBlend in="SourceGraphic" in2="text1" mode="multiply" result="text4"></feBlend><feBlend in="text4" in2="text3" mode="multiply"></feBlend></filter></defs><g filter="url(#editing-vr)"><g transform="translate(212.31781387329102, 119.18999862670898)"><path d="M27.13-61.75L27.13-61.75L27.13-61.75Q32-67.88 44.38-70.13L44.38-70.13L44.38-70.13Q49.75-71 55.38-71L55.38-71L55.38-71Q61-71 67-70L67-70L67-70Q70.25-73.63 73.63-73.63L73.63-73.63L73.63-73.63Q74.50-73.63 74.81-73.19L74.81-73.19L74.81-73.19Q75.13-72.75 74.75-72.25L74.75-72.25L74.75-72.25Q74.38-71.75 73.06-71.31L73.06-71.31L73.06-71.31Q71.75-70.88 70-69.38L70-69.38L70-69.38Q74.25-68.13 75.88-67.31L75.88-67.31L75.88-67.31Q77.50-66.50 78.31-65.25L78.31-65.25L78.31-65.25Q79.13-64 79.13-63.50L79.13-63.50L79.13-63.50Q79.13-62.38 75.69-63.50L75.69-63.50L75.69-63.50Q72.25-64.63 67.63-65.25L67.63-65.25L67.63-65.25Q65.38-59.88 62.88-50.50L62.88-50.50L62.88-50.50Q60.38-41.13 59.88-39.25L59.88-39.25L59.88-39.25Q66.63-40.88 68.94-40.88L68.94-40.88L68.94-40.88Q71.25-40.88 71.75-40.56L71.75-40.56L71.75-40.56Q72.25-40.25 72.31-39.75L72.31-39.75L72.31-39.75Q72.38-39.25 72.13-38.94L72.13-38.94L72.13-38.94Q71.88-38.63 71.31-38.88L71.31-38.88L71.31-38.88Q70.75-39.13 69.25-39.13L69.25-39.13L69.25-39.13Q67.75-39.13 63.63-38.06L63.63-38.06L63.63-38.06Q59.50-37 58.75-34.88L58.75-34.88L58.75-34.88Q47.25-3.25 29.50 9.13L29.50 9.13L29.50 9.13Q21.63 14.75 15.13 14.75L15.13 14.75L15.13 14.75Q12.75 14.75 10.63 14L10.63 14L10.63 14Q4.25 11.88 4.25 4.56L4.25 4.56L4.25 4.56Q4.25-2.75 11.88-11.50L11.88-11.50L11.88-11.50Q27.25-29.13 53.38-37.38L53.38-37.38L53.38-37.38Q53.75-38.50 55.75-44.75L55.75-44.75L55.75-44.75Q60.13-59 63.88-65.50L63.88-65.50L63.88-65.50Q62.38-65.50 59.38-65.50L59.38-65.50L59.38-65.50Q56.38-65.50 50.88-64.88L50.88-64.88L50.88-64.88Q36.75-63.25 30.75-57.75L30.75-57.75L30.75-57.75Q27.63-54.75 27.63-50.88L27.63-50.88L27.63-50.88Q27.63-49 28.69-47.50L28.69-47.50L28.69-47.50Q29.75-46 30.75-45.38L30.75-45.38L30.75-45.38Q32.38-44.25 35.13-42.88L35.13-42.88L35.13-42.88Q36.63-41.75 35.75-41.50L35.75-41.50L35.75-41.50Q35.38-41.50 34.88-41.63L34.88-41.63L34.88-41.63Q31.88-42.25 28.50-45.25L28.50-45.25L28.50-45.25Q25.13-48.25 25-52.13L25-52.13L25-52.13Q24.63-53.50 24.63-54.38L24.63-54.38L24.63-54.38Q24.63-58.50 27.13-61.75ZM10.75 3.63L10.75 3.63L10.75 3.63Q10.75 5 11 6.38L11 6.38L11 6.38Q12.25 11.13 17.25 11.13L17.25 11.13L17.25 11.13Q24.63 11.13 32.75 1.25L32.75 1.25L32.75 1.25Q44.75-13.38 52.63-35L52.63-35L52.63-35Q30.75-27.88 18-11.88L18-11.88L18-11.88Q10.75-3 10.75 3.63Z" fill="#3682c3"></path></g></g><style>text {
  font-size: 64px;
  font-family: Arial Black;
  dominant-baseline: central;
  text-anchor: middle;
}</style></svg>